<svg version="1.1" id="Layer_1" xmlns="http://www.w3.org/2000/svg" xmlns:xlink="http://www.w3.org/1999/xlink" x="0px" y="0px"
	 width="100%" viewBox="0 0 717 717" enable-background="new 0 0 717 717" xml:space="preserve"
	 title="Wayward Wyverns Softworks">
<path fill="#FB6402" opacity="1.000000" stroke="none" 
            d="
        M397.793945,264.112030 
            C401.271118,276.800568 408.448547,286.507690 420.477966,292.327301 
            C428.562988,296.238678 436.623993,300.199738 444.710083,304.108917 
            C475.885193,319.180267 497.049072,343.391632 509.715179,375.341461 
            C510.444885,377.182129 510.803314,379.169983 510.887573,381.528137 
            C501.676880,382.076294 494.445435,386.297516 486.863464,390.033905 
            C484.031067,391.429779 479.318726,390.713531 476.141510,389.364136 
            C468.799622,386.246002 461.906799,382.082367 454.743591,378.520233 
            C453.498810,377.901215 451.813751,377.967773 450.345886,378.032410 
            C444.559296,378.287323 438.778229,378.667725 432.696533,378.845337 
            C427.832886,372.831116 423.437103,366.830719 418.660004,361.151031 
            C412.609406,353.957245 406.248779,347.024261 399.864136,339.686279 
            C392.700745,331.615143 385.724182,323.809906 378.661957,316.082977 
            C377.429260,314.734192 375.410034,313.974091 374.504150,312.485596 
            C372.945953,309.925415 372.304138,306.800964 370.712006,304.269012 
            C353.871918,277.488647 349.310547,249.054764 359.003693,217.333542 
            C369.800629,235.540833 382.980042,250.526352 397.793945,264.112030 
        z"/>
        <path fill="#CD3203" opacity="1.000000" stroke="none" 
            d="
        M397.922913,263.735962 
            C382.980042,250.526352 369.800629,235.540833 359.003693,217.333542 
            C349.310547,249.054764 353.871918,277.488647 370.712006,304.269012 
            C372.304138,306.800964 372.945953,309.925415 374.504150,312.485596 
            C375.410034,313.974091 377.429260,314.734192 378.661957,316.082977 
            C385.724182,323.809906 392.700745,331.615143 399.854309,340.120667 
            C399.991547,342.582550 399.980865,344.317566 399.705444,345.964417 
            C398.870850,345.415527 398.300934,344.954834 397.730988,344.494141 
            C397.730988,344.494141 397.630066,344.367004 397.425354,344.101868 
            C396.701477,343.394440 396.182281,342.952118 395.663055,342.509796 
            C395.663055,342.509796 395.568207,342.423035 395.368835,342.156860 
            C394.604309,341.450806 394.039154,341.010895 393.474030,340.570984 
            C393.474030,340.570984 393.301239,340.694702 393.231354,340.352753 
            C392.550690,339.555206 391.939880,339.099640 391.329102,338.644043 
            C391.329102,338.644043 391.205475,338.691315 391.099243,338.390198 
            C388.697662,336.297607 386.402313,334.506134 384.106995,332.714661 
            C384.085083,332.375427 383.916565,332.142120 383.273376,331.733704 
            C382.634094,331.292542 382.322845,331.132416 382.011597,330.972290 
            C382.011597,330.972290 381.998779,331.001221 381.867889,330.686462 
            C376.867310,326.793335 371.997620,323.214966 367.127960,319.636597 
            C367.079407,319.314087 366.900177,319.101959 366.237366,318.670288 
            C364.645691,317.482391 363.406952,316.624390 362.168213,315.766418 
            C362.168213,315.766418 362.100525,315.880737 362.014038,315.553772 
            C360.311279,314.108826 358.694977,312.990845 357.078705,311.872864 
            C357.078705,311.872864 357.055817,311.951324 357.000885,311.693420 
            C356.638153,311.265076 356.330322,311.094666 356.022522,310.924225 
            C355.220734,310.009460 354.418915,309.094696 353.246216,307.837219 
            C352.585938,307.325134 352.296539,307.155762 352.007111,306.986389 
            C352.007111,306.986420 352.000000,307.000000 351.888794,306.686584 
            C349.921173,304.501526 348.064758,302.629852 346.208374,300.758209 
            C346.208374,300.758209 346.188721,300.738739 346.207184,300.735870 
            C338.372955,290.521454 332.000061,279.554047 328.979340,266.882690 
            C324.089478,246.370499 325.835480,226.242554 333.119537,206.632416 
            C334.923462,201.775848 335.435242,198.214462 330.497253,195.312836 
            C333.507233,195.888382 335.866516,195.931885 338.296875,193.557495 
            C341.208130,190.713333 344.732605,188.496857 348.164490,186.314301 
            C357.726501,191.817795 366.859192,197.563034 376.556061,202.103302 
            C399.221283,212.715637 422.157379,222.749573 444.812744,233.329330 
            C438.836884,236.204819 433.032013,238.768707 427.227173,241.332596 
            C431.722260,243.304352 435.974487,244.063568 440.169342,245.063400 
            C441.204987,245.310242 442.054138,246.339432 442.989014,247.008987 
            C435.898712,246.346100 428.809967,245.164215 421.717773,245.143524 
            C411.419525,245.113464 398.534607,252.949860 397.922913,263.735962 
        z"/>
        <path fill="#C22802" opacity="1.000000" stroke="none" 
            d="
        M431.873108,447.997620 
            C432.027893,447.595398 432.182678,447.193176 432.559967,446.169312 
            C433.624969,440.667969 434.467499,435.788269 435.700195,430.964996 
            C436.716705,432.502045 437.900909,433.990295 437.880646,435.461975 
            C437.726471,446.645569 437.336731,457.825897 436.998566,469.333344 
            C436.947723,470.094238 436.918732,470.529022 436.667664,471.152954 
            C436.310028,471.898468 436.174469,472.454834 436.026917,473.439758 
            C434.070221,493.320923 428.329163,511.853851 420.867401,529.706665 
            C414.817810,544.180786 407.012512,557.920959 399.729431,572.223999 
            C393.979340,580.475037 388.851929,588.773010 382.905060,596.434937 
            C374.282990,607.543579 365.068634,618.192627 355.804871,629.181458 
            C353.266510,631.377930 351.030212,633.430603 348.793884,635.483276 
            C343.006226,639.308044 337.240692,643.166992 331.417969,646.937622 
            C329.570343,648.134094 327.570251,649.095093 324.987000,649.758850 
            C349.648560,613.901184 366.253723,574.987549 372.045654,531.410522 
            C372.211853,530.307556 372.437958,529.617493 372.778381,528.189697 
            C373.002045,524.967773 373.111359,522.483643 373.220673,519.999512 
            C373.532471,519.915039 373.744873,519.721497 374.266510,519.151978 
            C377.848877,516.614807 381.022583,514.344604 384.196320,512.074463 
            C384.485291,512.137695 384.739319,512.070007 385.387146,511.563965 
            C388.245270,509.183777 390.674713,507.110870 393.104187,505.037964 
            C393.426392,505.075317 393.705658,504.982941 394.350891,504.442383 
            C396.326599,502.665009 397.893524,501.206085 399.460388,499.747192 
            C399.460388,499.747162 399.646637,499.646729 399.940216,499.364075 
            C406.035736,492.044525 411.837677,485.007660 417.639618,477.970795 
            C417.639618,477.970795 417.849976,477.780579 418.117126,477.461365 
            C419.366638,475.516785 420.349030,473.891449 421.331421,472.266113 
            C421.331451,472.266144 421.244263,472.072296 421.525146,472.003235 
            C422.263000,470.992676 422.720001,470.051178 423.177002,469.109680 
            C423.177002,469.109680 423.081390,469.064056 423.386932,468.938843 
            C424.210999,467.596527 424.729492,466.379425 425.247986,465.162292 
            C425.247955,465.162292 425.152924,465.106995 425.456665,464.960815 
            C426.940186,461.943451 428.119995,459.072296 429.299805,456.201141 
            C429.299805,456.201141 429.221436,456.130524 429.490753,455.944031 
            C430.464417,453.170929 431.168732,450.584259 431.873108,447.997620 
        z"/>
        <path fill="#FB6402" opacity="1.000000" stroke="none" 
            d="
        M444.983765,233.017731 
            C422.157379,222.749573 399.221283,212.715637 376.556061,202.103302 
            C366.859192,197.563034 357.726501,191.817795 348.017792,186.009399 
            C340.803436,180.582108 333.908752,175.765518 326.862366,170.654785 
            C318.130005,162.214737 309.549377,154.068848 301.047241,145.587234 
            C302.110931,144.817337 303.096161,144.383163 304.081360,143.948975 
            C304.081360,143.948975 304.014191,143.981674 304.155579,144.265686 
            C307.200012,146.034180 310.103027,147.518661 313.006073,149.003143 
            C313.006073,149.003143 312.999695,149.001221 313.055603,149.346252 
            C317.060791,151.471161 321.010040,153.251038 324.959320,155.030914 
            C324.959320,155.030899 324.990387,154.994965 325.164795,155.259705 
            C325.903748,155.676407 326.468231,155.828369 327.032745,155.980331 
            C327.032745,155.980331 327.002502,156.004211 327.159454,156.304993 
            C329.523712,157.417816 331.730988,158.229874 333.938293,159.041946 
            C333.938293,159.041946 333.980469,158.996033 334.152039,159.335129 
            C339.879913,161.448486 345.436249,163.222748 350.992554,164.996994 
            C350.992554,164.996994 351.000000,164.998169 351.231201,165.293365 
            C356.689240,166.697815 361.916016,167.807053 367.451599,168.934891 
            C368.172424,168.971863 368.584442,168.990234 369.062927,169.350128 
            C377.096069,177.736923 387.192719,174.472687 396.598389,174.773407 
            C397.046204,174.787720 397.531921,173.618195 398.348816,173.044739 
            C400.424194,175.402664 402.841034,177.483353 403.716675,180.083115 
            C405.053650,184.052780 406.742584,186.445038 411.322449,186.112808 
            C412.566559,186.022537 414.475159,186.860474 415.093872,187.873779 
            C417.230835,191.373703 420.475433,191.768631 424.022430,192.086273 
            C425.304138,192.201065 427.523651,193.160324 427.576782,193.865219 
            C427.959167,198.941086 430.846802,199.818115 435.358429,199.143814 
            C444.079895,212.988861 455.050903,223.555206 470.935974,228.074860 
            C470.957489,228.017563 470.829437,228.093811 470.949463,227.749054 
            C468.970673,224.064362 466.871887,220.724411 464.900085,216.973083 
            C465.971771,216.045502 466.952332,215.029160 467.855469,215.093857 
            C473.957092,215.531082 479.715942,215.033966 484.389282,210.452972 
            C484.541168,210.304092 485.009552,210.478027 484.541382,210.443802 
            C486.722290,211.885788 488.321899,212.943405 489.921478,214.001038 
            C492.453156,217.571365 494.777161,221.316437 497.585449,224.653992 
            C499.646942,227.103989 502.068878,229.497437 504.813751,231.074432 
            C510.548859,234.369415 516.718140,236.906769 522.467346,240.180084 
            C524.585266,241.385910 526.862061,243.496643 527.626465,245.695267 
            C531.373169,256.471161 534.634644,267.415771 537.979004,279.028717 
            C536.555115,279.634399 534.907043,279.975159 533.933167,279.317474 
            C525.151978,273.387085 516.813049,266.727142 507.692352,261.397003 
            C499.901886,256.844269 491.253540,253.759399 482.672363,249.859222 
            C469.901306,244.134720 457.442535,238.576233 444.983765,233.017731 
        z"/>
        <path fill="#F95A00" opacity="1.000000" stroke="none" 
            d="
        M432.995117,379.001556 
            C438.778229,378.667725 444.559296,378.287323 450.345886,378.032410 
            C451.813751,377.967773 453.498810,377.901215 454.743591,378.520233 
            C461.906799,382.082367 468.799622,386.246002 476.141510,389.364136 
            C479.318726,390.713531 484.031067,391.429779 486.863464,390.033905 
            C494.445435,386.297516 501.676880,382.076294 510.880676,381.926819 
            C512.559204,387.595673 513.797729,393.304718 515.026245,399.918518 
            C515.015320,409.655914 514.542725,418.520020 515.131042,427.313171 
            C515.888916,438.639404 512.605713,448.749634 507.921326,458.752899 
            C504.723022,465.582642 502.135803,472.698303 499.265259,479.681976 
            C497.834229,483.163605 496.485199,486.684174 494.909760,490.099792 
            C493.043945,494.144958 491.197632,498.227509 488.944031,502.059296 
            C484.785889,509.129456 480.336884,516.028564 476.007111,522.606445 
            C476.283875,520.932434 476.133057,519.219971 476.913666,518.441895 
            C480.873993,514.494080 480.363617,509.543640 479.901093,504.860077 
            C479.160065,497.356415 482.608002,493.094635 489.134735,490.285736 
            C490.957458,489.501221 492.968842,487.759247 493.641571,485.982452 
            C495.144836,482.011810 496.102356,477.780182 496.752991,473.573029 
            C496.957092,472.253082 495.261200,469.342438 494.792694,469.416718 
            C490.288544,470.130524 485.663086,470.837372 481.469910,472.530640 
            C477.668549,474.065674 474.362152,476.826477 470.831451,479.050690 
            C469.048920,475.709015 467.526306,472.854523 466.002625,469.561615 
            C465.621643,464.850220 465.473083,460.541656 464.822845,456.310181 
            C461.464691,434.457428 453.329742,414.357361 442.219116,395.361298 
            C439.058868,389.958130 436.065186,384.457489 432.995117,379.001556 
        z"/>
        <path fill="#FC6B04" opacity="1.000000" stroke="none" 
            d="
        M489.978699,213.637085 
            C488.321899,212.943405 486.722290,211.885788 484.541382,210.443802 
            C485.009552,210.478027 484.541168,210.304092 484.389282,210.452972 
            C479.715942,215.033966 473.957092,215.531082 467.855469,215.093857 
            C466.952332,215.029160 465.971771,216.045502 464.618988,216.772293 
            C461.448181,213.058517 459.509430,207.746826 455.744110,205.510361 
            C448.784668,201.376740 440.755005,199.044937 433.003845,196.094589 
            C433.093170,196.435272 433.349823,196.643921 433.819305,197.013290 
            C434.379303,197.771896 434.726410,198.369781 435.073547,198.967667 
            C430.846802,199.818115 427.959167,198.941086 427.576782,193.865219 
            C427.523651,193.160324 425.304138,192.201065 424.022430,192.086273 
            C420.475433,191.768631 417.230835,191.373703 415.093872,187.873779 
            C414.475159,186.860474 412.566559,186.022537 411.322449,186.112808 
            C406.742584,186.445038 405.053650,184.052780 403.716675,180.083115 
            C402.841034,177.483353 400.424194,175.402664 398.053131,172.892776 
            C393.607269,168.794846 389.805969,164.893646 385.850128,160.697571 
            C368.791992,142.533478 355.731445,122.118736 345.925842,99.633850 
            C343.161438,93.294899 341.262817,86.578407 339.225555,80.027222 
            C339.656189,80.010658 339.828369,80.001961 340.000519,79.993271 
            C350.414368,90.939034 360.366455,102.374039 371.337952,112.728951 
            C394.328308,134.427307 420.480682,151.912323 448.561584,166.201004 
            C462.416016,173.250687 473.514771,182.016052 480.126404,196.303024 
            C482.865082,202.220963 486.699707,207.631714 489.978699,213.637085 
        z"/>
        <path fill="#EF4F03" opacity="1.000000" stroke="none" 
            d="
        M357.829620,459.662445 
            C357.383789,459.656891 356.937988,459.651337 355.869690,459.866821 
            C347.466949,463.704224 339.686615,467.320587 331.906311,470.936951 
            C331.906311,470.936951 331.986938,470.977356 331.628357,470.995178 
            C329.453705,472.288605 327.637665,473.564209 325.897919,474.866364 
            C325.974243,474.892914 325.845886,474.794678 325.510620,474.863647 
            C322.455566,476.621796 319.735748,478.311005 316.630554,479.835846 
            C306.461182,479.445312 296.674988,479.286255 286.893616,478.975800 
            C274.988586,478.597900 263.522308,476.336182 253.233505,469.998749 
            C251.114151,468.693298 249.554504,466.479218 247.736893,464.683929 
            C247.736893,464.683929 247.855621,464.788422 248.062195,464.743652 
            C248.493622,464.404694 248.718460,464.110535 248.943298,463.816345 
            C257.934387,456.779144 266.925507,449.741943 276.458252,442.366028 
            C288.167786,434.643921 299.642914,427.905151 312.863159,425.266907 
            C310.447479,427.472076 307.990479,429.231689 305.747650,431.231476 
            C305.065033,431.840088 304.468872,433.298920 304.741852,434.028229 
            C305.056946,434.870087 306.294128,435.671326 307.273193,435.912384 
            C315.777740,438.006409 324.333588,439.893280 332.830811,442.015411 
            C335.813354,442.760284 338.776642,443.766693 341.569702,445.044769 
            C346.357697,447.235748 351.554688,449.067322 355.520416,452.335449 
            C358.223358,454.562927 360.166199,457.445404 363.652344,457.872894 
            C361.476196,458.552612 359.652924,459.107544 357.829620,459.662445 
        z"/>
        <path fill="#E94603" opacity="1.000000" stroke="none" 
            d="
        M193.199554,305.759888 
            C186.309036,291.765503 181.654007,277.145294 180.649582,261.476288 
            C178.839371,233.237030 184.847137,206.669815 198.088013,181.105362 
            C198.703583,180.149811 198.877213,179.630707 199.050858,179.111603 
            C199.050858,179.111603 199.012451,179.042816 199.260071,178.892761 
            C199.649704,178.447754 199.791718,178.152771 199.933716,177.857788 
            C199.933716,177.857788 199.996841,177.408173 200.280121,177.075409 
            C200.794647,176.523010 200.918106,176.253906 200.933807,175.935364 
            C200.933807,175.935364 201.000427,175.984009 201.326981,175.988556 
            C205.234268,176.372101 203.067047,178.561554 202.816635,179.987885 
            C202.344833,182.675171 201.645798,185.322540 200.751770,188.285675 
            C199.647141,195.967819 198.531326,203.332047 198.069397,210.737061 
            C196.185104,240.944534 201.129593,269.858063 214.733978,297.290131 
            C214.601074,301.489838 214.443008,305.433594 214.992844,309.276062 
            C215.469467,312.606903 216.748428,315.822937 217.672760,319.089691 
            C216.993271,318.917969 216.313782,318.746246 215.634308,318.574524 
            C213.490891,320.129120 211.347473,321.683685 208.864120,323.484833 
            C207.348785,322.626831 205.124756,321.367554 202.913315,320.094025 
            C202.925888,320.079773 202.918167,320.103271 202.935486,319.737823 
            C202.257462,318.608521 201.562119,317.844696 200.904587,317.066711 
            C200.942398,317.052582 200.945480,317.133240 200.849182,316.895508 
            C200.488419,316.450714 200.223938,316.243683 199.980042,316.019775 
            C200.000610,316.002930 199.960159,316.041534 199.879440,315.831696 
            C199.645081,315.352722 199.429459,315.149231 199.022003,314.856323 
            C198.892151,314.701294 198.898193,314.296814 198.919006,313.916443 
            C198.248856,312.715698 197.557892,311.895386 196.905975,311.063965 
            C196.945007,311.052917 196.939178,311.133881 196.872894,310.911987 
            C196.670715,310.400940 196.463730,310.177673 196.062119,309.838501 
            C195.938583,309.656708 195.928604,309.217255 195.861374,308.976135 
            C195.570129,308.494141 195.346130,308.253204 194.940338,307.772552 
            C194.232071,306.949524 193.705597,306.366241 193.179108,305.782990 
            C193.179108,305.782990 193.187561,305.765259 193.199554,305.759888 
        z"/>
        <path fill="#EF4F03" opacity="1.000000" stroke="none" 
            d="
        M338.967102,80.035080 
            C341.262817,86.578407 343.161438,93.294899 345.925842,99.633850 
            C355.731445,122.118736 368.791992,142.533478 385.841309,161.075745 
            C384.856354,163.224289 383.996368,165.556396 382.544464,166.015091 
            C378.151672,167.402893 373.529327,168.064194 368.996460,169.008606 
            C368.584442,168.990234 368.172424,168.971863 367.329773,168.738007 
            C366.705231,168.261505 366.448212,168.102463 366.128082,168.045395 
            C366.128082,168.045395 365.952881,167.613556 365.864563,167.128448 
            C365.495331,166.443329 365.214417,166.243301 364.933502,166.043289 
            C364.588654,165.983612 364.320801,165.807098 363.960876,165.049133 
            C363.601685,164.289948 363.335205,164.105606 362.992462,164.031448 
            C362.715210,163.850601 362.437927,163.669769 361.976318,163.031570 
            C361.608429,162.289780 361.351898,162.108871 361.022339,162.031494 
            C361.022339,162.031494 360.974182,162.024002 360.952515,161.692719 
            C360.493011,161.021683 360.055176,160.681915 359.617371,160.342148 
            C359.617371,160.342148 359.785645,159.990433 359.689758,159.889252 
            C359.260803,159.686325 358.927795,159.584610 358.594757,159.482895 
            C358.594757,159.482895 358.535522,159.424332 358.627319,159.050262 
            C357.759064,157.831238 356.799011,156.986267 355.838928,156.141281 
            C355.838928,156.141281 355.925751,156.036758 355.830200,155.847336 
            C355.449310,155.464218 355.163940,155.270523 354.878571,155.076813 
            C354.878571,155.076813 354.996338,155.030807 354.975708,154.694885 
            C353.926331,153.274841 352.897583,152.190735 351.868805,151.106628 
            C351.868805,151.106628 351.953674,151.022736 351.861969,150.829697 
            C351.500916,150.435287 351.231537,150.233932 350.962189,150.032578 
            C350.962189,150.032578 351.000000,150.000000 350.993530,149.647537 
            C349.299072,147.217621 347.611084,145.140167 345.923065,143.062714 
            C345.923065,143.062729 345.993317,142.996872 345.951294,142.664062 
            C344.222870,139.922760 342.536499,137.514236 340.850128,135.105713 
            C340.850128,135.105713 340.960358,135.015686 340.960663,134.675476 
            C338.921021,130.592682 336.881104,126.850098 334.841187,123.107513 
            C334.841187,123.107513 334.954529,123.024513 334.957275,122.698555 
            C334.292725,121.256332 333.625458,120.140068 332.958191,119.023796 
            C332.958191,119.023788 333.005737,119.011131 333.010132,118.611488 
            C331.673615,113.168800 330.029083,108.182838 329.067535,103.068481 
            C327.823669,96.452171 326.812744,89.757912 326.286011,83.051315 
            C325.830475,77.251610 326.191376,71.387787 326.191376,65.403885 
            C328.330627,66.478302 329.739471,67.185890 331.148346,67.893478 
            C331.148346,67.893471 331.036713,67.978935 331.042175,68.295563 
            C332.058624,69.723923 333.069580,70.835663 334.080536,71.947403 
            C334.080536,71.947411 334.002960,71.989830 334.010376,72.318336 
            C334.716614,73.404114 335.415436,74.161385 336.114258,74.918655 
            C336.114258,74.918655 336.033844,74.976501 336.119507,75.177597 
            C336.468781,75.583237 336.732422,75.787781 336.996094,75.992325 
            C336.996094,75.992317 337.002441,75.998169 336.994781,76.343094 
            C337.647125,77.803696 338.307098,78.919388 338.967102,80.035080 
        z"/>
        <path fill="#DE3703" opacity="1.000000" stroke="none" 
            d="
        M247.397949,464.752686 
            C249.554504,466.479218 251.114151,468.693298 253.233505,469.998749 
            C263.522308,476.336182 274.988586,478.597900 286.893616,478.975800 
            C296.674988,479.286255 306.461182,479.445312 316.480560,480.143738 
            C315.294830,481.684814 313.873779,482.753632 312.268921,483.820221 
            C311.822784,483.951691 311.733093,484.159760 311.480682,484.562531 
            C307.394562,489.765045 303.643890,494.847229 299.893188,499.929382 
            C299.893188,499.929382 299.980713,499.976624 299.492828,499.978363 
            C290.042236,499.583832 281.079559,499.187531 272.116852,498.791260 
            C272.116852,498.791260 272.068176,498.866730 271.827484,498.609985 
            C268.057770,497.626526 264.528778,496.899841 260.999756,496.173157 
            C260.598755,496.014679 260.197754,495.856201 259.224487,495.470398 
            C257.809753,495.095184 256.967224,494.947266 256.124725,494.799377 
            C256.124725,494.799377 256.103973,494.890594 256.040649,494.658264 
            C255.662964,494.371155 255.348572,494.316437 255.034195,494.261719 
            C254.610474,494.117737 254.186768,493.973724 253.242645,493.580383 
            C251.445084,492.957428 250.167938,492.583801 248.890778,492.210205 
            C248.890778,492.210205 248.586273,492.057037 248.586273,492.057037 
            C248.586273,492.057037 248.245514,492.067688 247.900482,491.857758 
            C246.725006,491.393341 245.894547,491.138824 245.064102,490.884338 
            C245.064102,490.884338 245.044250,490.965027 244.985077,490.731262 
            C244.676208,490.237854 244.379425,490.161591 244.035507,490.268707 
            C243.638611,490.069946 243.241699,489.871216 242.304169,489.398560 
            C241.226181,488.915009 240.688812,488.705353 240.151428,488.495728 
            C239.666016,488.246094 239.180588,487.996460 238.236725,487.477905 
            C237.231277,487.004395 236.684265,486.799835 236.137253,486.595276 
            C235.678314,486.273376 235.219376,485.951447 234.243988,485.345795 
            C232.199600,484.302032 230.671661,483.542053 229.143738,482.782043 
            C229.143738,482.782043 229.113892,482.804901 229.137360,482.792786 
            C227.146164,481.360168 225.131516,479.939667 223.030777,478.458435 
            C231.157867,473.845978 239.108429,469.333710 247.397949,464.752686 
        z"/>
        <path fill="#DE3703" opacity="1.000000" stroke="none" 
            d="
        M277.844879,415.964996 
            C272.274597,420.677429 266.704285,425.389862 261.017639,430.404968 
            C258.015717,434.770752 254.405136,434.482391 250.065414,433.158325 
            C229.023849,426.738495 211.697662,414.962036 198.261795,397.493439 
            C201.914398,399.293304 205.252777,401.444183 208.591156,403.595032 
            C208.912354,403.159241 209.233566,402.723480 209.554764,402.287720 
            C208.007401,397.035431 206.460052,391.783142 205.031830,386.935242 
            C203.382843,385.690277 200.900772,384.729034 200.664566,383.375793 
            C200.438110,382.078491 202.393616,380.231537 203.674423,378.899414 
            C204.523468,378.016327 205.873123,377.614532 207.295517,377.151550 
            C211.814224,381.457550 215.987625,385.659943 220.266541,389.751984 
            C236.403458,405.183929 256.137390,412.750427 277.844879,415.964996 
        z"/>
        <path fill="#E76314" opacity="1.000000" stroke="none" 
            d="
        M512.596497,454.952820 
            C512.596497,454.952820 512.547729,455.190369 512.356201,455.435486 
            C512.064331,456.133240 511.963898,456.585876 511.863495,457.038513 
            C511.863495,457.038513 511.692902,457.230835 511.468475,457.576965 
            C511.076172,458.636688 510.908295,459.350311 510.740417,460.063904 
            C510.608612,460.362000 510.476837,460.660095 510.210144,461.404846 
            C509.328369,465.232819 508.581512,468.614136 507.834595,471.995422 
            C507.517151,472.137024 507.350311,472.381622 507.083282,473.046844 
            C505.461975,475.897949 504.091461,478.431335 502.721008,480.964722 
            C498.660950,489.166962 494.600922,497.369171 490.284241,506.000122 
            C489.396637,507.291687 488.765686,508.154572 488.134705,509.017456 
            C487.377899,510.274353 486.621124,511.531281 485.563904,513.281738 
            C485.114349,514.204956 484.965240,514.634583 484.816162,515.064209 
            C484.510254,515.387573 484.204346,515.710876 483.600708,516.425842 
            C483.186615,517.218750 483.070251,517.619995 482.953857,518.021301 
            C481.493774,520.029114 480.033661,522.036987 478.157166,524.499634 
            C477.289215,525.906982 476.837677,526.859497 476.386139,527.812012 
            C476.386139,527.812012 476.346558,527.991516 476.077118,528.151489 
            C474.304932,530.114258 472.802185,531.916992 471.299438,533.719727 
            C470.485199,534.406250 469.670959,535.092834 468.452332,536.139771 
            C467.478455,537.257935 466.908966,538.015747 466.339478,538.773560 
            C464.693237,540.520508 463.047028,542.267395 461.066772,544.459473 
            C460.077179,545.868042 459.421692,546.831482 458.766205,547.794922 
            C458.766205,547.794922 458.919495,547.981689 458.521393,547.949585 
            C457.163177,549.175415 456.203033,550.433289 455.242920,551.691223 
            C453.992737,552.965332 452.742554,554.239502 451.171204,555.898560 
            C449.979828,557.415710 449.109650,558.547913 448.239441,559.680115 
            C446.834900,560.815247 445.430328,561.950439 443.646851,563.519653 
            C442.362396,564.917419 441.456848,565.881165 440.551300,566.844849 
            C438.157532,568.952637 435.763733,571.060364 432.879883,573.504700 
            C432.104614,574.188965 431.819427,574.536682 431.534241,574.884399 
            C429.329651,576.821777 427.125092,578.759155 424.498535,581.094971 
            C422.989777,582.605408 421.903015,583.717407 420.816284,584.829468 
            C420.816284,584.829468 421.013458,584.911499 420.598511,584.924561 
            C419.286285,585.904175 418.389038,586.870605 417.491791,587.837097 
            C416.939514,588.177612 416.387238,588.518066 415.760651,589.095093 
            C395.842041,606.209473 375.031830,621.726196 352.186127,634.371216 
            C351.326904,634.846802 350.401489,635.202759 349.150391,635.548889 
            C351.030212,633.430603 353.266510,631.377930 356.162537,629.164673 
            C357.866882,628.556152 359.012024,628.258362 359.940704,627.637085 
            C368.869873,621.663086 378.025055,615.983093 386.595276,609.528259 
            C396.091827,602.375671 405.120239,594.590454 414.204132,586.905273 
            C419.393494,582.514954 424.455780,577.943909 429.262787,573.141479 
            C433.412201,568.996033 437.119873,564.408386 441.334869,559.836060 
            C445.106171,554.516602 446.757812,548.408142 452.490204,544.496643 
            C461.275940,538.501648 470.236572,532.412964 476.009094,522.998962 
            C480.336884,516.028564 484.785889,509.129456 488.944031,502.059296 
            C491.197632,498.227509 493.043945,494.144958 494.909760,490.099792 
            C496.485199,486.684174 497.834229,483.163605 499.265259,479.681976 
            C502.135803,472.698303 504.723022,465.582642 507.921326,458.752899 
            C512.605713,448.749634 515.888916,438.639404 515.131042,427.313171 
            C514.542725,418.520020 515.015320,409.655914 515.037659,400.346313 
            C515.862976,405.854340 517.276428,411.834503 517.324524,417.825653 
            C517.392212,426.267822 516.448425,434.718140 515.985840,443.586731 
            C515.865601,444.397369 515.696716,444.786255 515.314331,445.778320 
            C514.266052,449.238556 513.431274,452.095703 512.596497,454.952820 
        z"/>
        <path fill="#E24003" opacity="1.000000" stroke="none" 
            d="
        M206.998672,376.997284 
            C205.873123,377.614532 204.523468,378.016327 203.674423,378.899414 
            C202.393616,380.231537 200.438110,382.078491 200.664566,383.375793 
            C200.900772,384.729034 203.382843,385.690277 205.031830,386.935242 
            C206.460052,391.783142 208.007401,397.035431 209.554764,402.287720 
            C209.233566,402.723480 208.912354,403.159241 208.591156,403.595032 
            C205.252777,401.444183 201.914398,399.293304 198.220520,397.152771 
            C197.865036,397.163086 197.902267,397.102631 197.818863,396.889771 
            C197.462784,396.466034 197.190109,396.255188 196.917435,396.044312 
            C196.917435,396.044312 197.002777,396.024994 196.994736,395.665009 
            C197.134613,394.666412 197.174149,393.976654 197.447617,393.397308 
            C199.573135,388.894531 199.111343,388.148804 194.000198,388.003571 
            C193.008392,387.975372 192.015121,387.998718 191.022537,387.998291 
            C191.022537,387.998291 190.992294,387.998199 190.958923,387.684845 
            C190.554153,386.936249 190.182770,386.500977 189.811386,386.065735 
            C189.811386,386.065735 189.936218,386.053772 189.826721,385.864899 
            C189.425873,385.472290 189.134521,385.268555 188.843140,385.064819 
            C186.281082,380.499237 183.301697,376.112244 181.253540,371.326691 
            C178.083435,363.919708 175.549225,356.240601 172.464478,347.919159 
            C180.269516,352.919098 187.218018,357.370361 194.560104,361.864258 
            C194.953674,361.906952 195.226364,362.143341 195.572357,362.395386 
            C198.213043,363.527771 200.507721,364.408142 202.802399,365.288513 
            C202.802399,365.288513 202.813904,365.164948 202.794617,365.403809 
            C202.775330,365.642639 202.974243,366.038239 202.942749,366.028320 
            C202.911270,366.018372 202.888489,366.080353 202.580963,366.055511 
            C201.862625,366.053253 201.451813,366.075806 200.875641,366.158661 
            C200.649719,366.318512 200.514572,366.470825 200.541321,366.508667 
            C200.670517,366.691406 200.843292,366.843292 201.038376,367.357910 
            C203.050323,370.805573 205.024490,373.901428 206.998672,376.997284 
        z"/>
        <path fill="#E24003" opacity="1.000000" stroke="none" 
            d="
        M300.968750,145.922943 
            C309.549377,154.068848 318.130005,162.214737 326.857910,171.075943 
            C326.476074,180.883316 324.180328,183.667908 316.814911,184.151352 
            C316.814911,184.151352 316.898682,184.109131 316.801208,183.897430 
            C316.399414,183.489944 316.095154,183.294144 315.790863,183.098358 
            C315.790863,183.098358 315.895172,183.108292 315.872162,182.814423 
            C315.198364,182.040253 314.547546,181.559921 313.896759,181.079605 
            C313.896759,181.079605 313.960083,181.020264 313.842102,180.827515 
            C313.438904,180.442612 313.153687,180.250443 312.868439,180.058273 
            C312.868439,180.058273 312.949341,180.049225 312.843903,179.852264 
            C312.467682,179.452133 312.196869,179.248962 311.926086,179.045807 
            C311.926086,179.045807 311.993927,179.007614 311.866821,178.815002 
            C311.472076,178.430954 311.204498,178.239517 310.936890,178.048065 
            C310.936890,178.048065 310.997650,178.001266 310.871643,177.810303 
            C310.553070,177.339508 310.294830,177.148346 309.970947,177.045853 
            C309.970947,177.045853 309.993622,177.009201 309.869019,176.802643 
            C309.549866,176.326660 309.295013,176.139267 308.979797,176.033920 
            C308.979797,176.033920 308.991455,176.005295 308.978271,175.651550 
            C308.256561,174.565308 307.548035,173.832840 306.839539,173.100372 
            C306.839539,173.100372 306.926147,173.069382 306.831238,172.870773 
            C306.462952,172.461624 306.189575,172.251068 305.916229,172.040512 
            C305.916229,172.040512 305.986237,172.015137 305.862244,171.821335 
            C305.467407,171.431808 305.196564,171.236069 304.925751,171.040344 
            C304.925751,171.040344 305.000092,171.010223 304.979004,170.676392 
            C304.264282,169.587463 303.570679,168.832336 302.877045,168.077225 
            C302.877045,168.077225 302.950226,168.042709 302.849518,167.848923 
            C302.488129,167.446167 302.227417,167.237213 301.966736,167.028259 
            C301.966736,167.028259 302.000000,167.000610 301.883911,166.804626 
            C301.587189,166.339752 301.348511,166.140289 301.051788,166.010284 
            C301.051788,166.010284 300.988922,166.010132 300.907715,165.801178 
            C300.686676,165.364014 300.501892,165.181244 300.272156,165.043900 
            C300.272156,165.043900 300.005096,164.628433 299.883728,164.147766 
            C299.506866,163.449249 299.251434,163.231415 298.995972,163.013580 
            C298.995972,163.013580 298.998779,163.001831 298.917999,162.818420 
            C298.708344,162.397156 298.531555,162.202942 298.306824,162.052368 
            C298.209595,161.914062 298.112396,161.775772 297.885620,161.151398 
            C297.496887,160.453201 297.237732,160.241089 296.978577,160.028992 
            C296.978577,160.028992 296.996338,160.002441 296.950134,159.699219 
            C296.512238,158.960388 296.120575,158.524780 295.728882,158.089157 
            C295.395020,158.086105 295.159546,157.932343 294.974365,157.033768 
            C294.551483,154.602249 294.176727,152.764801 293.765045,150.746338 
            C296.131104,149.162094 298.549927,147.542526 300.968750,145.922943 
        z"/>
        <path fill="#DE3703" opacity="1.000000" stroke="none" 
            d="
        M444.812744,233.329346 
            C457.442535,238.576233 469.901306,244.134720 482.671143,250.225967 
            C482.364960,251.809280 481.973602,253.472488 481.089264,253.798477 
            C478.124207,254.891479 478.232330,256.813293 479.018768,259.163452 
            C470.947968,256.326263 462.878601,253.485107 454.804749,250.656616 
            C453.713623,250.274353 452.600128,249.955811 451.179382,248.977371 
            C448.916779,248.146851 446.971802,247.946732 445.026825,247.746613 
            C444.474792,247.646515 443.922791,247.546432 443.179871,247.227661 
            C442.054138,246.339432 441.204987,245.310242 440.169342,245.063400 
            C435.974487,244.063568 431.722260,243.304352 427.227173,241.332596 
            C433.032013,238.768707 438.836884,236.204819 444.812744,233.329346 
        z"/>
        <path fill="#E94603" opacity="1.000000" stroke="none" 
            d="
        M479.239319,259.435303 
            C478.232330,256.813293 478.124207,254.891479 481.089264,253.798477 
            C481.973602,253.472488 482.364960,251.809280 482.983429,250.391983 
            C491.253540,253.759399 499.901886,256.844269 507.692352,261.397003 
            C516.813049,266.727142 525.151978,273.387085 533.933167,279.317474 
            C534.907043,279.975159 536.555115,279.634399 537.935669,279.425903 
            C538.625610,280.503815 539.270386,281.912445 540.466980,284.526703 
            C519.314026,275.921051 499.386963,267.814117 479.239319,259.435303 
        z"/>
        <path fill="#DE3703" opacity="1.000000" stroke="none" 
            d="
        M316.947754,184.460052 
            C324.180328,183.667908 326.476074,180.883316 327.009644,171.370087 
            C333.908752,175.765518 340.803436,180.582108 347.844818,185.703629 
            C344.732605,188.496857 341.208130,190.713333 338.296875,193.557495 
            C335.866516,195.931885 333.507233,195.888382 330.342285,195.004791 
            C325.666260,191.588821 321.373444,188.178787 316.947754,184.460052 
        z"/>
        <path fill="#E76314" opacity="1.000000" stroke="none" 
            d="
        M201.041214,187.986511 
            C201.645798,185.322540 202.344833,182.675171 202.816635,179.987885 
            C203.067047,178.561554 205.234268,176.372101 201.294312,175.959854 
            C204.480942,170.787460 208.026764,165.648315 211.782211,160.257812 
            C211.991821,160.006454 212.019714,160.000488 212.019714,160.000488 
            C211.398956,168.703751 210.505646,177.399139 210.253937,186.113068 
            C210.088135,191.853088 210.846359,197.619797 211.330688,203.760773 
            C211.646439,205.502457 211.822342,206.857925 212.074371,208.946228 
            C212.576614,211.194473 213.002731,212.709854 213.428864,214.225235 
            C213.626282,215.255219 213.823685,216.285202 214.124481,217.924896 
            C214.250748,218.918121 214.450516,219.147934 214.827148,219.224045 
            C214.827148,219.224045 214.794891,219.124329 214.745453,219.471741 
            C214.955170,220.616241 215.214294,221.413315 215.473419,222.210403 
            C215.597214,222.626923 215.721008,223.043427 215.984802,223.998779 
            C216.324890,224.788025 216.524979,225.038422 216.725082,225.288803 
            C216.725082,225.288803 216.634583,225.221695 216.624741,225.577332 
            C216.908203,226.693069 217.201508,227.453171 217.494827,228.213287 
            C217.630936,228.628403 217.767044,229.043533 218.045685,230.042160 
            C218.417496,230.928955 218.646790,231.232239 218.876068,231.535507 
            C218.876083,231.535507 218.794632,231.816101 218.929779,232.233017 
            C219.338974,232.964935 219.613022,233.279938 219.887054,233.594940 
            C219.893158,233.925125 219.899261,234.255325 220.012909,235.065491 
            C220.345322,235.785278 220.570206,236.025101 220.795105,236.264923 
            C220.795090,236.264938 220.748215,236.162033 220.727814,236.475876 
            C220.968643,237.263672 221.229843,237.737640 221.491058,238.211594 
            C221.670303,238.728516 221.849548,239.245438 222.262009,240.267212 
            C222.827377,241.255783 223.159546,241.739517 223.491699,242.223236 
            C223.674820,242.736435 223.857971,243.249634 224.284790,244.264786 
            C224.877762,245.242569 225.227051,245.718399 225.576355,246.194214 
            C225.777847,246.718063 225.979324,247.241928 226.478821,248.254395 
            C226.863739,249.153214 226.950653,249.563385 226.690277,249.933167 
            C225.248596,248.496262 223.853333,247.241928 223.114243,245.677582 
            C220.531830,240.211639 217.736694,234.785355 215.829117,229.074539 
            C212.278931,218.446228 208.691879,207.754745 208.988464,196.289841 
            C209.046906,194.030594 208.996887,191.768524 208.996887,189.687576 
            C205.828873,189.010193 203.435043,188.498352 201.041214,187.986511 
        z"/>
        <path fill="#E76314" opacity="1.000000" stroke="none" 
            d="
        M301.047241,145.587250 
            C298.549927,147.542526 296.131104,149.162094 293.765045,150.746338 
            C294.176727,152.764801 294.551483,154.602249 294.909912,156.821930 
            C288.602722,147.100830 284.372772,136.148544 281.106659,124.717644 
            C288.825897,131.019012 296.352570,137.163177 303.980286,143.628174 
            C303.096161,144.383163 302.110931,144.817337 301.047241,145.587250 
        z"/>
        <path fill="#F55C06" opacity="1.000000" stroke="none" 
            d="
        M356.030731,423.801147 
            C367.023560,426.608704 377.318481,430.884369 386.657043,438.463531 
            C387.711609,439.207184 388.305603,439.628204 389.028259,440.345154 
            C390.426514,441.774902 391.696075,442.908722 392.984528,444.031036 
            C393.003448,444.019501 392.963074,444.025635 393.029083,444.281250 
            C393.386841,444.714783 393.678589,444.892700 393.970337,445.070618 
            C394.839264,446.272369 395.708191,447.474121 396.940002,449.142761 
            C399.619904,453.238647 401.936951,456.867676 404.917114,461.535217 
            C402.022644,460.897675 400.508881,460.564240 398.995117,460.230804 
            C398.299591,460.027435 397.604034,459.824066 396.266602,459.395355 
            C394.494904,458.994843 393.365082,458.819641 392.235260,458.644470 
            C392.235260,458.644470 392.126068,458.700745 391.864197,458.473938 
            C382.403290,458.080780 373.204254,457.914459 364.005188,457.748108 
            C360.166199,457.445404 358.223358,454.562927 355.520416,452.335449 
            C351.554688,449.067322 346.357697,447.235748 341.569702,445.044769 
            C338.776642,443.766693 335.813354,442.760284 332.830811,442.015411 
            C324.333588,439.893280 315.777740,438.006409 307.273193,435.912384 
            C306.294128,435.671326 305.056946,434.870087 304.741852,434.028229 
            C304.468872,433.298920 305.065033,431.840088 305.747650,431.231476 
            C307.990479,429.231689 310.447479,427.472076 312.863159,425.266907 
            C312.904175,424.913605 312.942719,424.925934 313.131104,424.874878 
            C313.584076,424.705566 313.794678,424.524445 313.951233,424.280548 
            C326.356445,421.470917 338.862061,421.164185 351.437012,422.831726 
            C352.391083,422.958252 353.300018,423.425140 354.873749,423.837555 
            C355.688599,423.894562 355.859680,423.847870 356.030731,423.801147 
        z"/>
        <path fill="#E94603" opacity="1.000000" stroke="none" 
            d="
        M432.696533,378.845337 
            C436.065186,384.457489 439.058868,389.958130 442.219116,395.361298 
            C453.329742,414.357361 461.464691,434.457428 464.822845,456.310181 
            C465.473083,460.541656 465.621643,464.850220 465.597290,469.550293 
            C457.966888,467.876282 450.740845,465.775269 443.692932,463.726013 
            C443.257935,466.491272 440.607758,468.247253 437.020416,469.007263 
            C437.336731,457.825897 437.726471,446.645569 437.880646,435.461975 
            C437.900909,433.990295 436.716705,432.502045 435.606537,430.776794 
            C435.262360,430.155670 435.402039,429.779236 435.866577,429.102356 
            C435.940826,425.859222 435.690186,422.916534 435.298340,419.585388 
            C434.838379,417.097168 434.519592,414.997437 434.200806,412.897705 
            C434.206757,412.459991 434.212738,412.022247 434.129517,410.879944 
            C433.418243,407.422943 432.796173,404.670563 432.174103,401.918182 
            C432.136200,401.483490 432.098297,401.048828 431.985046,399.962891 
            C431.336426,397.844330 430.763092,396.377075 430.189758,394.909790 
            C430.136871,394.464264 430.083984,394.018707 429.912292,393.019348 
            C429.559265,392.254883 429.325073,392.044250 429.090881,391.833588 
            C429.090881,391.833588 429.084229,391.920563 429.105194,391.535461 
            C425.371033,380.513245 420.641174,370.404877 413.190582,361.772278 
            C413.190582,361.772278 413.161102,361.892578 413.139954,361.519104 
            C411.072815,358.463654 409.026794,355.781677 406.863647,352.868011 
            C406.474701,352.428955 406.202881,352.221588 405.963806,352.010254 
            C405.996521,352.006256 405.985107,352.071198 405.866699,351.841248 
            C405.471283,351.413727 405.194244,351.216156 404.952484,351.015686 
            C404.987762,351.012756 404.981415,351.083282 404.866302,350.853485 
            C404.481812,350.418640 404.212433,350.213623 403.943054,350.008575 
            C403.943054,350.008575 404.001953,349.998749 403.873169,349.801819 
            C403.466431,349.409058 403.188446,349.213226 402.947906,349.016235 
            C402.985352,349.015015 402.983124,349.089935 402.863647,348.858276 
            C402.467773,348.422852 402.191406,348.219116 401.945129,348.014679 
            C401.975220,348.013947 401.951630,348.069550 401.838654,347.842590 
            C401.458832,347.414001 401.192017,347.212402 400.925171,347.010773 
            C400.925171,347.010773 400.993683,347.004974 400.873627,346.809662 
            C400.480682,346.411743 400.207794,346.209137 399.961121,346.004517 
            C399.987366,346.002533 399.970154,346.052582 399.970154,346.052582 
            C399.980865,344.317566 399.991547,342.582550 400.012054,340.413147 
            C406.248779,347.024261 412.609406,353.957245 418.660004,361.151031 
            C423.437103,366.830719 427.832886,372.831116 432.696533,378.845337 
        z"/>
        <path fill="#E76314" opacity="1.000000" stroke="none" 
            d="
        M300.045959,310.938232 
            C303.721100,312.330444 307.396271,313.722656 311.430847,315.152344 
            C311.790314,315.189880 311.851074,315.166229 311.935669,315.364990 
            C312.020294,315.563751 312.463989,315.785461 312.463989,315.785461 
            C312.463989,315.785461 312.959412,315.762085 312.959412,315.762085 
            C313.361816,315.967896 313.764221,316.173676 314.499329,316.448761 
            C325.523376,321.101318 336.258423,325.586578 346.882690,330.320435 
            C350.661438,332.004089 354.171204,334.291473 357.561707,336.632080 
            C354.787018,335.877502 352.252869,334.797455 349.721863,333.710144 
            C336.731842,328.129395 323.703918,322.634277 310.777466,316.910034 
            C307.049805,315.259247 303.615021,312.947144 300.045959,310.938232 
        z"/>
        <path fill="#E76314" opacity="1.000000" stroke="none" 
            d="
        M411.739838,419.046387 
            C410.734406,416.787018 409.867798,414.766205 409.332458,412.429199 
            C410.729065,413.336273 411.794403,414.559509 412.859772,415.782776 
            C413.231262,415.613983 413.602753,415.445190 413.974274,415.276428 
            C413.063385,411.568176 412.144684,407.861786 411.243713,404.151154 
            C410.173737,399.744690 409.118866,395.334534 408.335205,391.145569 
            C410.239532,395.649811 411.866119,399.934509 413.492676,404.219208 
            C413.655029,404.918335 413.817383,405.617432 414.052002,407.028076 
            C414.618134,409.889465 415.111969,412.039337 415.605835,414.189209 
            C415.704651,415.224823 415.803467,416.260406 415.960266,418.117004 
            C416.008942,421.999268 415.999634,425.060547 415.990326,428.121857 
            C415.990326,428.121857 415.526306,427.998322 415.289368,427.597717 
            C414.096100,425.098877 413.139740,423.000641 412.183350,420.902435 
            C412.081787,420.363281 411.980225,419.824127 411.739838,419.046387 
        z"/>
        <path fill="#E76314" opacity="1.000000" stroke="none" 
            d="
        M240.049316,267.951813 
            C242.765533,270.685608 245.481750,273.419403 248.500763,276.327423 
            C249.541000,277.319611 250.278427,278.137604 251.266983,279.072754 
            C252.917679,280.599548 254.317230,282.009216 255.484070,283.720215 
            C250.092148,278.751801 244.932922,273.482056 239.842651,268.147278 
            C239.911606,268.082184 240.049316,267.951813 240.049316,267.951813 
        z"/>
        <path fill="#E76314" opacity="1.000000" stroke="none" 
            d="
        M266.060242,291.925751 
            C267.434174,292.691833 268.808105,293.457916 270.505066,294.340149 
            C270.945251,294.735962 271.149597,294.917480 271.650604,295.025818 
            C274.483643,296.813751 277.107208,298.576782 279.513184,300.666016 
            C274.883820,297.970093 270.472015,294.947937 266.060242,291.925751 
        z"/>
        <path fill="#E76314" opacity="1.000000" stroke="none" 
            d="
        M384.854187,356.473053 
            C386.853790,358.611694 388.853394,360.750336 391.247131,363.324524 
            C391.790222,364.146729 391.939209,364.533417 391.737366,364.913574 
            C387.957947,361.236664 384.529297,357.566223 381.415771,353.977539 
            C382.771942,354.863861 383.813080,355.668457 384.854187,356.473053 
        z"/>
        <path fill="#E76314" opacity="1.000000" stroke="none" 
            d="
        M235.311523,261.106689 
            C236.943939,263.240265 238.410797,265.270416 239.963486,267.626160 
            C240.049316,267.951813 239.911606,268.082184 239.529770,268.030151 
            C236.588150,264.216644 234.028351,260.455109 231.729431,256.862213 
            C232.957962,258.116760 233.925629,259.202667 234.893280,260.288574 
            C234.855606,260.569885 234.939835,260.808105 235.311523,261.106689 
        z"/>
        <path fill="#E76314" opacity="1.000000" stroke="none" 
            d="
        M368.002106,342.988525 
            C368.391296,343.129730 368.780487,343.270935 369.465271,343.521912 
            C370.284851,344.072784 370.808899,344.513947 371.697510,345.275543 
            C372.400909,346.040283 372.739655,346.484589 372.709290,346.954773 
            C370.894135,345.649933 369.448120,344.319244 368.002106,342.988525 
        z"/>
        <path fill="#CD3203" opacity="1.000000" stroke="none" 
            d="
        M400.285645,347.000061 
            C400.050659,346.979095 399.993134,346.493011 399.964020,346.249756 
            C400.207794,346.209137 400.480682,346.411743 400.871521,346.843994 
            C400.989441,347.073608 400.520599,347.021057 400.285645,347.000061 
        z"/>
        <path fill="#CD3203" opacity="1.000000" stroke="none" 
            d="
        M400.959137,347.245697 
            C401.192017,347.212402 401.458832,347.414001 401.606506,347.812225 
            C401.487335,348.008820 401.022278,347.954407 401.022278,347.954407 
            C401.022278,347.954407 400.993103,347.480621 400.959137,347.245697 
        z"/>
        <path fill="#CD3203" opacity="1.000000" stroke="none" 
            d="
        M403.286377,349.989746 
            C403.050110,349.978394 402.974030,349.499146 402.942261,349.258301 
            C403.188446,349.213226 403.466431,349.409058 403.868408,349.831268 
            C403.992371,350.057678 403.522675,350.001068 403.286377,349.989746 
        z"/>
        <path fill="#F1ECDC" opacity="1.000000" stroke="none" 
            d="
        M393.029083,444.281250 
            C393.133057,444.018158 393.303040,444.010712 393.727661,444.000244 
            C393.986389,444.176025 393.990479,444.354797 393.982452,444.802063 
            C393.678589,444.892700 393.386841,444.714783 393.029083,444.281250 
        z"/>
        <path fill="#F35001" opacity="1.000000" stroke="none" 
            d="
        M436.998566,469.333344 
            C440.607758,468.247253 443.257935,466.491272 443.692932,463.726013 
            C450.740845,465.775269 457.966888,467.876282 465.598297,469.988647 
            C467.526306,472.854523 469.048920,475.709015 470.831451,479.050690 
            C474.362152,476.826477 477.668549,474.065674 481.469910,472.530640 
            C485.663086,470.837372 490.288544,470.130524 494.792694,469.416718 
            C495.261200,469.342438 496.957092,472.253082 496.752991,473.573029 
            C496.102356,477.780182 495.144836,482.011810 493.641571,485.982452 
            C492.968842,487.759247 490.957458,489.501221 489.134735,490.285736 
            C482.608002,493.094635 479.160065,497.356415 479.901093,504.860077 
            C480.363617,509.543640 480.873993,514.494080 476.913666,518.441895 
            C476.133057,519.219971 476.283875,520.932434 476.007141,522.606445 
            C470.236572,532.412964 461.275940,538.501648 452.490204,544.496643 
            C446.757812,548.408142 445.106171,554.516602 441.055786,559.612000 
            C440.144196,558.037720 439.264282,556.366089 439.608124,555.003113 
            C440.638855,550.917542 438.666046,549.412842 435.255951,550.098206 
            C428.936218,551.368347 422.683624,553.059753 416.526459,554.972900 
            C415.396759,555.323853 414.593506,557.470886 414.100098,558.943176 
            C413.424561,560.958984 413.364044,563.176636 412.731506,565.211975 
            C411.067963,570.565063 404.943604,573.750916 399.985901,571.986633 
            C407.012512,557.920959 414.817810,544.180786 420.867401,529.706665 
            C428.329163,511.853851 434.070221,493.320923 436.311584,473.396057 
            C436.702057,472.270538 436.795898,471.617188 436.889771,470.963837 
            C436.918732,470.529022 436.947723,470.094238 436.998566,469.333344 
        z"/>
        <path fill="#EE4B01" opacity="1.000000" stroke="none" 
            d="
        M399.729431,572.223999 
            C404.943604,573.750916 411.067963,570.565063 412.731506,565.211975 
            C413.364044,563.176636 413.424561,560.958984 414.100098,558.943176 
            C414.593506,557.470886 415.396759,555.323853 416.526459,554.972900 
            C422.683624,553.059753 428.936218,551.368347 435.255951,550.098206 
            C438.666046,549.412842 440.638855,550.917542 439.608124,555.003113 
            C439.264282,556.366089 440.144196,558.037720 440.743774,559.792236 
            C437.119873,564.408386 433.412201,568.996033 429.262787,573.141479 
            C424.455780,577.943909 419.393494,582.514954 414.204132,586.905273 
            C405.120239,594.590454 396.091827,602.375671 386.595276,609.528259 
            C378.025055,615.983093 368.869873,621.663086 359.940704,627.637085 
            C359.012024,628.258362 357.866882,628.556152 356.464539,629.020874 
            C365.068634,618.192627 374.282990,607.543579 382.905060,596.434937 
            C388.851929,588.773010 393.979340,580.475037 399.729431,572.223999 
        z"/>
        <path fill="#E94603" opacity="1.000000" stroke="none" 
            d="
        M436.667664,471.152954 
            C436.795898,471.617188 436.702057,472.270538 436.323547,472.967560 
            C436.174469,472.454834 436.310028,471.898468 436.667664,471.152954 
        z"/>
        <path fill="#F1ECDC" opacity="1.000000" stroke="none" 
            d="
        M433.171173,195.962555 
            C440.755005,199.044937 448.784668,201.376740 455.744110,205.510361 
            C459.509430,207.746826 461.448181,213.058517 464.492035,217.183685 
            C466.871887,220.724411 468.970673,224.064362 470.976807,227.744507 
            C470.884155,228.084702 470.914490,228.132172 470.914490,228.132172 
            C455.050903,223.555206 444.079895,212.988861 435.358429,199.143814 
            C434.726410,198.369781 434.379303,197.771896 433.781494,196.756012 
            C433.410950,196.212860 433.291077,196.087708 433.171173,195.962555 
        z"/>
        <path fill="#F95A00" opacity="1.000000" stroke="none" 
            d="
        M369.062927,169.350128 
            C373.529327,168.064194 378.151672,167.402893 382.544464,166.015091 
            C383.996368,165.556396 384.856354,163.224289 385.995819,161.370605 
            C389.805969,164.893646 393.607269,168.794846 397.704285,172.848022 
            C397.531921,173.618195 397.046204,174.787720 396.598389,174.773407 
            C387.192719,174.472687 377.096069,177.736923 369.062927,169.350128 
        z"/>
        <path fill="#F1ECDC" opacity="1.000000" stroke="none" 
            d="
        M470.856812,228.089264 
            C470.829437,228.093811 470.957489,228.017563 470.935974,228.074860 
            C470.914490,228.132172 470.884155,228.084702 470.856812,228.089264 
        z"/>
        <path fill="#FB6402" opacity="1.000000" stroke="none" 
            d="
        M433.003845,196.094604 
            C433.291077,196.087708 433.410950,196.212860 433.568634,196.595276 
            C433.349823,196.643921 433.093170,196.435272 433.003845,196.094604 
        z"/>
        <path fill="#F55C06" opacity="1.000000" stroke="none" 
            d="
        M382.667938,402.911926 
            C382.970886,403.366028 383.108612,403.657654 383.684448,404.242615 
            C384.273590,404.819336 384.563599,405.037048 384.853638,405.254761 
            C384.853638,405.254761 384.826569,405.136658 384.838440,405.478241 
            C385.543671,406.579987 386.237000,407.340118 386.930359,408.100281 
            C386.930359,408.100281 386.942261,408.058868 386.922424,408.072754 
            C388.716919,411.484711 390.531250,414.882782 392.345551,418.280884 
            C392.036896,418.631378 391.728241,418.981873 391.419617,419.332397 
            C377.383698,411.772888 363.167114,404.717010 346.677734,402.760742 
            C346.193634,402.875061 346.211334,402.712860 346.211334,402.712860 
            C335.103790,402.550903 323.996246,402.388947 312.731079,401.826172 
            C315.396271,400.629791 318.231995,399.135284 321.039154,399.187134 
            C326.537659,399.288757 326.619080,396.601715 325.289398,391.743774 
            C322.258881,393.153168 319.454834,394.338898 316.762634,395.739624 
            C313.490509,397.442078 310.844879,398.329529 308.613617,393.947357 
            C307.830750,392.409729 305.016907,391.469513 302.977112,391.097626 
            C298.444824,390.271271 293.692566,390.466492 289.254181,389.352234 
            C282.233246,387.589661 275.376404,385.154236 268.496765,382.863342 
            C266.990784,382.361816 265.719238,381.195129 264.273438,380.466278 
            C260.583130,378.605957 257.001556,375.742126 253.114014,375.214874 
            C243.170654,373.866180 232.888626,376.738617 223.020905,373.111115 
            C222.207626,372.812164 221.052689,373.220398 220.119156,373.505310 
            C211.577148,376.112457 206.475784,373.930603 202.888489,366.080353 
            C202.888489,366.080353 202.911270,366.018372 203.190338,365.957458 
            C203.632217,365.842163 203.795029,365.787720 203.957840,365.733276 
            C204.375900,365.896637 204.793976,366.059998 205.742126,366.458527 
            C206.846848,366.779816 207.421478,366.865967 207.996109,366.952087 
            C208.293259,367.137451 208.590408,367.322784 209.383453,367.650940 
            C214.585968,368.866913 219.292587,369.940002 223.999191,371.013092 
            C224.310028,371.152191 224.620850,371.291290 225.450714,371.571899 
            C227.313889,371.801880 228.658051,371.890350 230.002213,371.978821 
            C230.407455,372.119476 230.812698,372.260132 231.899765,372.564667 
            C242.440109,372.594635 252.298645,372.460724 262.157166,372.326813 
            C262.572693,372.354218 262.988190,372.381622 264.133362,372.335083 
            C283.574402,371.501190 302.285797,370.741272 320.997162,369.981384 
            C321.403900,370.122101 321.810638,370.262817 322.855377,370.556458 
            C324.996826,370.873047 326.500275,371.036682 328.003723,371.200287 
            C328.003723,371.200287 328.202271,371.316803 328.532440,371.499054 
            C329.565002,371.741852 330.267426,371.802429 330.969818,371.863007 
            C331.385193,372.010468 331.800568,372.157928 332.804016,372.497253 
            C334.261261,372.821289 335.130371,372.953430 335.999512,373.085571 
            C335.999512,373.085571 336.171356,373.256836 336.468262,373.443970 
            C337.163940,373.686920 337.562683,373.742767 337.961456,373.798584 
            C338.374603,373.954285 338.787781,374.109985 339.782837,374.529968 
            C344.202454,376.260529 348.040131,377.726837 351.877838,379.193176 
            C351.877838,379.193146 351.939209,379.104523 352.058716,379.403229 
            C353.394012,380.222076 354.609833,380.742218 355.825623,381.262360 
            C355.825623,381.262360 355.899536,381.179657 356.031952,381.468262 
            C359.729828,383.979218 363.295258,386.201538 366.860718,388.423859 
            C367.357880,388.928711 367.855072,389.433533 368.720520,390.229126 
            C369.391785,390.681580 369.694763,390.843262 369.997772,391.004974 
            C371.427979,392.330017 372.858185,393.655090 374.720703,395.394958 
            C376.427734,396.893707 377.702484,397.977692 378.977234,399.061676 
            C380.106079,400.312836 381.234894,401.563965 382.667938,402.911926 
        z"/>
        <path fill="#E24003" opacity="1.000000" stroke="none" 
            d="
        M202.900742,320.108276 
            C205.124756,321.367554 207.348785,322.626831 208.864120,323.484833 
            C211.347473,321.683685 213.490891,320.129120 215.634308,318.574524 
            C216.313782,318.746246 216.993271,318.917969 217.672760,319.089691 
            C216.748428,315.822937 215.469467,312.606903 214.992844,309.276062 
            C214.443008,305.433594 214.601074,301.489838 214.999786,297.500763 
            C216.803314,299.536804 217.858658,301.815063 219.346588,303.762878 
            C229.511536,317.069702 241.242844,328.666962 256.241119,336.516388 
            C265.643494,341.437134 274.950592,346.724426 286.144135,347.244690 
            C286.907318,348.023224 287.522430,348.600647 288.137543,349.178070 
            C287.661774,349.341217 287.186035,349.504333 286.227478,349.558258 
            C285.399750,349.357666 285.159027,349.485321 285.022522,349.832001 
            C285.022522,349.832001 284.986694,350.005951 284.622375,350.034271 
            C277.757965,352.293396 271.257812,354.524200 264.757690,356.755005 
            C264.757690,356.755005 264.818298,356.689911 264.501404,356.704529 
            C263.742737,357.039398 263.300934,357.359619 262.859161,357.679871 
            C262.476654,357.641144 262.094147,357.602417 261.122803,357.392731 
            C258.764008,357.037415 256.994049,356.853058 255.224121,356.668671 
            C255.224121,356.668671 255.131790,356.732635 254.990570,356.506470 
            C254.245880,356.261780 253.642395,356.243286 253.038925,356.224762 
            C252.616776,356.087067 252.194611,355.949371 251.222534,355.536255 
            C249.810135,355.124786 248.947647,354.988770 248.085159,354.852783 
            C248.085159,354.852783 248.067383,354.935303 248.008057,354.701843 
            C247.689240,354.200317 247.384399,354.130554 247.034225,354.259033 
            C246.620773,354.101257 246.207321,353.943481 245.274475,353.511108 
            C243.835220,352.901184 242.915375,352.565796 241.995514,352.230408 
            C241.604401,352.051910 241.213287,351.873444 240.264648,351.400238 
            C236.205124,349.314514 232.703140,347.523529 229.201141,345.732544 
            C229.201141,345.732544 229.144073,345.828522 229.084351,345.586426 
            C228.686752,345.221619 228.348892,345.098907 228.011017,344.976227 
            C228.011017,344.976227 228.000000,345.001221 227.857864,344.696960 
            C225.861557,343.188019 224.007385,341.983337 222.153229,340.778625 
            C222.153229,340.778625 222.085892,340.874542 221.984344,340.566040 
            C220.011307,338.740143 218.139847,337.222717 216.268387,335.705322 
            C216.268387,335.705322 216.031479,335.729797 216.030548,335.436157 
            C214.761032,334.017456 213.492432,332.892426 212.223831,331.767395 
            C212.223831,331.767395 212.081711,332.020569 212.054718,331.583771 
            C209.686935,328.759644 207.346146,326.372345 205.005341,323.985016 
            C204.640076,323.394592 204.274826,322.804169 203.627869,321.733551 
            C203.197678,320.871674 203.049210,320.489960 202.900742,320.108276 
        z"/>
        <path fill="#E76314" opacity="1.000000" stroke="none" 
            d="
        M288.404022,349.286346 
            C287.522430,348.600647 286.907318,348.023224 286.613159,347.234070 
            C299.108307,347.792297 311.419769,345.262177 323.501740,348.883728 
            C327.677917,350.135437 332.222412,350.118683 336.463470,351.207794 
            C339.165680,351.901672 341.619385,353.563141 344.124878,354.860626 
            C344.065247,354.930511 343.947266,355.071320 343.585846,355.069031 
            C342.506744,355.000610 341.789062,354.934509 341.071381,354.868408 
            C341.071381,354.868408 341.021027,354.949463 340.891602,354.689758 
            C340.184784,354.334808 339.607422,354.239594 339.030029,354.144409 
            C338.638336,353.955780 338.246643,353.767181 337.243164,353.361206 
            C335.764496,352.945831 334.897614,352.747864 334.030701,352.549896 
            C334.030701,352.549896 333.749908,352.526855 333.524048,352.397369 
            C332.875977,352.233307 332.453827,352.198730 332.031647,352.164124 
            C331.335999,351.930084 330.640381,351.696045 329.280762,351.321442 
            C327.742981,351.039276 326.869141,350.897675 325.995331,350.756042 
            C325.995331,350.756042 325.741425,350.658142 325.374084,350.491089 
            C323.683197,350.262238 322.359650,350.200439 321.036072,350.138611 
            C320.336578,349.904419 319.637085,349.670197 318.182678,349.330811 
            C308.221222,349.333954 299.014648,349.442261 289.808105,349.550598 
            C289.428894,349.498596 289.049713,349.446594 288.404022,349.286346 
        z"/>
        <path fill="#E76314" opacity="1.000000" stroke="none" 
            d="
        M351.020172,358.129944 
            C350.637268,357.916290 350.254364,357.702667 349.272858,357.269836 
            C347.098572,356.390839 345.522919,355.731079 343.947266,355.071350 
            C343.947266,355.071320 344.065247,354.930511 344.525085,354.920837 
            C350.275482,355.520508 355.349274,356.621979 358.635620,361.051086 
            C357.901062,360.987488 357.483002,360.935852 357.064941,360.884216 
            C357.064941,360.884247 357.035339,360.960693 356.978088,360.734985 
            C356.679413,360.247040 356.387604,360.165741 356.045410,360.265320 
            C355.655762,360.039642 355.266083,359.813934 354.331848,359.342468 
            C353.269775,358.960968 352.752350,358.825226 352.234894,358.689514 
            C352.234894,358.689514 352.153290,358.767792 352.093933,358.548218 
            C351.696472,358.262421 351.358307,358.196198 351.020172,358.129944 
        z"/>
        <path fill="#E76314" opacity="1.000000" stroke="none" 
            d="
        M394.942932,390.056061 
            C394.181976,389.381561 393.421021,388.707062 392.393372,387.872131 
            C392.124512,387.399261 391.987183,387.166473 391.387268,386.684875 
            C390.740265,386.114777 390.420746,385.873169 390.101227,385.631561 
            C389.739227,385.111267 389.377197,384.591003 388.691711,383.661102 
            C388.189362,382.883759 388.010498,382.516052 387.919250,382.068359 
            C388.006836,381.988403 388.181152,381.827576 388.502716,381.929138 
            C390.863831,384.705811 392.903381,387.380920 394.942932,390.056061 
        z"/>
        <path fill="#E76314" opacity="1.000000" stroke="none" 
            d="
        M383.992035,379.053253 
            C382.888214,378.080109 381.784363,377.106934 380.326172,375.823395 
            C379.971771,375.513000 379.962036,375.037964 380.332733,375.022400 
            C384.279083,376.093018 387.587463,377.472229 388.181152,381.827576 
            C388.181152,381.827576 388.006836,381.988403 387.641907,381.950256 
            C386.512390,381.288666 385.747803,380.665222 384.983215,380.041809 
            C384.983215,380.041809 384.999939,379.996155 384.912720,379.762939 
            C384.634247,379.219482 384.356415,379.060669 383.992035,379.053253 
        z"/>
        <path fill="#E76314" opacity="1.000000" stroke="none" 
            d="
        M362.493195,363.490417 
            C361.841156,363.112671 361.466370,362.813354 361.375732,362.263428 
            C363.171295,362.938080 364.682770,363.863342 366.134064,364.854797 
            C366.073914,364.920929 365.954010,365.053497 365.645416,364.997009 
            C364.934814,364.826050 364.532776,364.711578 364.130768,364.597107 
            C363.677338,364.254333 363.223907,363.911591 362.493195,363.490417 
        z"/>
        <path fill="#E76314" opacity="1.000000" stroke="none" 
            d="
        M368.026062,367.118774 
            C368.026062,367.118774 367.895294,366.857025 367.583313,366.579620 
            C366.832245,365.885986 366.393127,365.469757 365.954010,365.053497 
            C365.954010,365.053497 366.073914,364.920929 366.453857,364.923218 
            C367.622040,365.545227 368.410309,366.164886 369.134277,366.854309 
            C369.069977,366.924103 368.941223,367.063507 368.712219,367.074036 
            C368.483246,367.084534 368.026062,367.118774 368.026062,367.118774 
        z"/>
        <path fill="#E76314" opacity="1.000000" stroke="none" 
            d="
        M372.019196,368.971527 
            C371.626221,368.835815 371.233215,368.700104 370.539673,368.468201 
            C370.074280,368.135895 369.850342,367.991272 369.312683,367.721313 
            C369.058105,367.504425 368.941223,367.063507 368.941223,367.063507 
            C368.941223,367.063507 369.069977,366.924103 369.461182,366.923218 
            C370.574646,367.605408 371.296936,368.288452 372.019196,368.971527 
        z"/>
        <path fill="#E76314" opacity="1.000000" stroke="none" 
            d="
        M285.267181,349.876190 
            C285.159027,349.485321 285.399750,349.357666 285.847168,349.566772 
            C285.949585,349.684509 285.511841,349.920380 285.267181,349.876190 
        z"/>
        <path fill="#F35001" opacity="1.000000" stroke="none" 
            d="
        M202.580963,366.055511 
            C206.475784,373.930603 211.577148,376.112457 220.119156,373.505310 
            C221.052689,373.220398 222.207626,372.812164 223.020905,373.111115 
            C232.888626,376.738617 243.170654,373.866180 253.114014,375.214874 
            C257.001556,375.742126 260.583130,378.605957 264.273438,380.466278 
            C265.719238,381.195129 266.990784,382.361816 268.496765,382.863342 
            C275.376404,385.154236 282.233246,387.589661 289.254181,389.352234 
            C293.692566,390.466492 298.444824,390.271271 302.977112,391.097626 
            C305.016907,391.469513 307.830750,392.409729 308.613617,393.947357 
            C310.844879,398.329529 313.490509,397.442078 316.762634,395.739624 
            C319.454834,394.338898 322.258881,393.153168 325.289398,391.743774 
            C326.619080,396.601715 326.537659,399.288757 321.039154,399.187134 
            C318.231995,399.135284 315.396271,400.629791 312.294189,401.683838 
            C299.519897,403.370056 289.040680,409.635406 278.199890,415.925018 
            C256.137390,412.750427 236.403458,405.183929 220.266541,389.751984 
            C215.987625,385.659943 211.814224,381.457550 207.295517,377.151550 
            C205.024490,373.901428 203.050323,370.805573 201.044739,367.130798 
            C201.013321,366.551849 201.041000,366.098389 201.041000,366.098389 
            C201.451813,366.075806 201.862625,366.053253 202.580963,366.055511 
        z"/>
        <path fill="#EF4F03" opacity="1.000000" stroke="none" 
            d="
        M313.704468,424.215210 
            C313.794678,424.524445 313.584076,424.705566 313.117737,424.885193 
            C313.096527,424.681000 313.277130,424.415436 313.704468,424.215210 
        z"/>
        <path fill="#F95C02" opacity="1.000000" stroke="none" 
            d="
        M372.012909,368.984741 
            C371.296936,368.288452 370.574646,367.605408 369.525452,366.853455 
            C368.410309,366.164886 367.622040,365.545227 366.514008,364.857086 
            C364.682770,363.863342 363.171295,362.938080 361.293640,362.036255 
            C360.927490,362.059692 360.973267,362.024353 360.813080,361.790558 
            C360.080505,361.385651 359.508087,361.214539 358.935699,361.043457 
            C358.935699,361.043457 358.967194,361.026489 358.959656,361.044800 
            C355.349274,356.621979 350.275482,355.520508 344.584717,354.850952 
            C341.619385,353.563141 339.165680,351.901672 336.463470,351.207794 
            C332.222412,350.118683 327.677917,350.135437 323.501740,348.883728 
            C311.419769,345.262177 299.108307,347.792297 286.465088,347.032959 
            C274.950592,346.724426 265.643494,341.437134 256.241119,336.516388 
            C241.242844,328.666962 229.511536,317.069702 219.346588,303.762878 
            C217.858658,301.815063 216.803314,299.536804 215.282028,297.200806 
            C201.129593,269.858063 196.185104,240.944534 198.069397,210.737061 
            C198.531326,203.332047 199.647141,195.967819 200.751770,188.285675 
            C203.435043,188.498352 205.828873,189.010193 208.996887,189.687576 
            C208.996887,191.768524 209.046906,194.030594 208.988464,196.289841 
            C208.691879,207.754745 212.278931,218.446228 215.829117,229.074539 
            C217.736694,234.785355 220.531830,240.211639 223.114243,245.677582 
            C223.853333,247.241928 225.248596,248.496262 226.690277,249.933167 
            C227.037567,249.973572 227.005234,249.984390 226.995667,250.354294 
            C228.461945,252.715851 229.937759,254.707504 231.413574,256.699158 
            C231.413589,256.699158 231.439514,256.714203 231.454041,256.703888 
            C234.028351,260.455109 236.588150,264.216644 239.460815,268.095245 
            C244.932922,273.482056 250.092148,278.751801 255.614716,284.018951 
            C255.978073,284.016388 255.998825,284.002411 256.030670,284.361633 
            C258.068451,286.127350 260.074371,287.533875 262.080292,288.940399 
            C262.080292,288.940399 262.003723,288.987396 262.048218,289.315765 
            C263.420197,290.411774 264.747681,291.179413 266.075134,291.947052 
            C266.075134,291.947052 266.042877,291.962677 266.051575,291.944214 
            C270.472015,294.947937 274.883820,297.970093 279.684937,300.954956 
            C280.074280,300.917603 280.049713,300.945679 280.084351,301.287964 
            C282.429199,302.739624 284.739441,303.849030 287.049683,304.958435 
            C287.049683,304.958435 287.000732,305.000000 287.069733,305.322876 
            C291.446472,307.416138 295.754211,309.186493 300.061951,310.956879 
            C300.061951,310.956879 300.032867,310.974670 300.039429,310.956451 
            C303.615021,312.947144 307.049805,315.259247 310.777466,316.910034 
            C323.703918,322.634277 336.731842,328.129395 349.721863,333.710144 
            C352.252869,334.797455 354.787018,335.877502 357.705902,336.939178 
            C358.092102,336.917480 358.047668,336.945770 358.102844,337.282532 
            C359.431641,338.084900 360.705200,338.550476 361.978790,339.016022 
            C361.978790,339.016022 361.998779,338.998779 362.046021,339.351898 
            C364.066345,340.802338 366.039429,341.899658 368.012482,342.997009 
            C368.012482,342.997009 368.000580,343.001190 368.001343,342.994873 
            C369.448120,344.319244 370.894135,345.649933 372.709290,346.954773 
            C373.078430,346.928864 373.042145,346.955475 373.060547,347.297668 
            C374.517883,348.610077 375.956787,349.580292 377.395691,350.550507 
            C377.395691,350.550507 377.362732,350.730469 377.372742,350.969940 
            C377.942413,351.458710 378.502075,351.707977 379.061737,351.957275 
            C379.061737,351.957275 379.008728,351.998871 379.121002,352.205627 
            C379.521332,352.593567 379.809357,352.774689 380.097412,352.955841 
            C380.097412,352.955841 380.023865,352.974701 380.130646,353.184937 
            C380.530457,353.578857 380.823456,353.762512 381.116455,353.946167 
            C381.116455,353.946198 381.058929,353.937744 381.079803,353.916779 
            C384.529297,357.566223 387.957947,361.236664 391.737366,364.913574 
            C392.088165,364.920105 392.051208,364.959015 392.130249,365.176758 
            C392.479584,365.593292 392.749939,365.792114 393.020294,365.990906 
            C393.020294,365.990906 393.000000,366.000000 392.994385,366.383972 
            C394.038513,367.811768 395.088257,368.855591 396.137970,369.899414 
            C396.137970,369.899414 396.061859,369.954376 396.139313,370.158691 
            C396.482727,370.573975 396.748657,370.784912 397.014587,370.995850 
            C397.014587,370.995850 396.998779,371.000000 396.997131,371.350159 
            C397.691498,372.450928 398.387482,373.201508 399.083466,373.952118 
            C399.083466,373.952118 399.009430,373.993439 399.011627,374.319641 
            C399.699554,375.416443 400.385284,376.187073 401.071014,376.957672 
            C401.071014,376.957672 401.002441,376.993652 401.028076,377.275818 
            C401.414948,378.022644 401.776215,378.487335 402.137512,378.952026 
            C402.137512,378.952026 402.055969,378.952271 402.121826,379.157562 
            C402.428955,379.586517 402.670197,379.810211 402.911469,380.033875 
            C402.911469,380.033875 402.985687,380.044556 402.966492,380.460968 
            C404.656067,384.243500 406.364777,387.609650 408.073517,390.975769 
            C408.073517,390.975769 408.022156,390.966095 408.039825,390.946045 
            C409.118866,395.334534 410.173737,399.744690 411.243713,404.151154 
            C412.144684,407.861786 413.063385,411.568176 413.974274,415.276428 
            C413.602753,415.445190 413.231262,415.613983 412.859772,415.782776 
            C411.794403,414.559509 410.729065,413.336273 409.321472,412.062958 
            C408.979218,412.012878 409.000153,412.004761 409.009583,411.635681 
            C408.330139,410.185150 407.641266,409.103699 406.952423,408.022217 
            C406.952423,408.022217 407.003418,408.005157 406.981995,407.719604 
            C406.618835,406.961914 406.277130,406.489838 405.935425,406.017761 
            C405.935394,406.017761 405.999908,406.013062 405.998840,405.664795 
            C404.968994,403.897491 403.940186,402.478424 402.911377,401.059387 
            C402.911377,401.059387 402.983765,401.010101 402.914307,400.825378 
            C402.711639,400.348572 402.500580,400.132660 402.211639,399.992828 
            C402.211639,399.992828 401.992218,399.608734 401.894287,399.131836 
            C401.519165,398.441406 401.242004,398.227875 400.964844,398.014313 
            C400.964844,398.014313 401.001923,398.000763 401.001404,397.647034 
            C398.981445,394.876801 396.962036,392.460327 394.942627,390.043854 
            C394.942627,390.043854 394.966644,390.026611 394.954773,390.041321 
            C392.903381,387.380920 390.863831,384.705811 388.502716,381.929138 
            C387.587463,377.472229 384.279083,376.093018 380.332733,375.022400 
            C379.962036,375.037964 379.991180,375.011749 379.883057,374.786255 
            C379.486664,374.379944 379.198334,374.199097 378.910034,374.018280 
            C378.575409,374.010651 378.308075,373.872650 377.994629,373.026001 
            C376.899353,371.980957 375.917450,371.514221 374.935547,371.047516 
            C374.935547,371.047516 374.990967,371.002167 374.875610,370.794769 
            C374.466003,370.410950 374.171722,370.234528 373.877411,370.058136 
            C373.877411,370.058136 373.959595,370.045593 373.818054,369.818848 
            C373.126801,369.387787 372.577148,369.183411 372.027466,368.979065 
            C372.027466,368.979065 372.006622,368.997986 372.012909,368.984741 
        z"/>
        <path fill="#E24003" opacity="1.000000" stroke="none" 
            d="
        M198.919006,313.916443 
            C198.258499,313.438049 197.618805,312.579254 196.923019,311.397766 
            C197.557892,311.895386 198.248856,312.715698 198.919006,313.916443 
        z"/>
        <path fill="#E24003" opacity="1.000000" stroke="none" 
            d="
        M202.935486,319.737823 
            C202.263107,319.309296 201.608047,318.515320 200.909882,317.401093 
            C201.562119,317.844696 202.257462,318.608521 202.935486,319.737823 
        z"/>
        <path fill="#E24003" opacity="1.000000" stroke="none" 
            d="
        M200.849182,316.895508 
            C200.659119,316.941193 200.372757,316.749146 200.022949,316.296875 
            C200.223938,316.243683 200.488419,316.450714 200.849182,316.895508 
        z"/>
        <path fill="#E24003" opacity="1.000000" stroke="none" 
            d="
        M195.861374,308.976135 
            C195.654053,308.996948 195.379517,308.776642 195.113556,308.284302 
            C195.346130,308.253204 195.570129,308.494141 195.861374,308.976135 
        z"/>
        <path fill="#E24003" opacity="1.000000" stroke="none" 
            d="
        M196.872894,310.911987 
            C196.678635,310.934326 196.418106,310.734802 196.171616,310.277771 
            C196.463730,310.177673 196.670715,310.400940 196.872894,310.911987 
        z"/>
        <path fill="#E24003" opacity="1.000000" stroke="none" 
            d="
        M199.879440,315.831696 
            C199.960159,316.041534 199.517822,315.978180 199.295868,315.952454 
            C199.073929,315.926758 199.058441,315.464539 199.105164,315.237976 
            C199.429459,315.149231 199.645081,315.352722 199.879440,315.831696 
        z"/>
        <path fill="#F55C06" opacity="1.000000" stroke="none" 
            d="
        M200.875641,366.158691 
            C201.041000,366.098389 201.013321,366.551849 201.006958,366.778992 
            C200.843292,366.843292 200.670517,366.691406 200.541321,366.508667 
            C200.514572,366.470825 200.649719,366.318512 200.875641,366.158691 
        z"/>
        <path fill="#F1ECDC" opacity="1.000000" stroke="none" 
            d="
        M389.028259,440.345154 
            C390.257111,441.125977 391.614624,442.202759 392.968872,443.661041 
            C391.696075,442.908722 390.426514,441.774902 389.028259,440.345154 
        z"/>
        <path fill="#C22802" opacity="1.000000" stroke="none" 
            d="
        M435.866577,429.102356 
            C435.460175,426.546814 435.378632,423.690857 435.368317,420.404358 
            C435.690186,422.916534 435.940826,425.859222 435.866577,429.102356 
        z"/>
        <path fill="#CD3203" opacity="1.000000" stroke="none" 
            d="
        M402.863647,348.858276 
            C402.983124,349.089935 402.500458,349.030090 402.258392,349.006897 
            C402.016327,348.983734 401.970795,348.499298 401.942932,348.257355 
            C402.191406,348.219116 402.467773,348.422852 402.863647,348.858276 
        z"/>
        <path fill="#CD3203" opacity="1.000000" stroke="none" 
            d="
        M406.863647,352.868011 
            C406.686279,352.909882 406.391754,352.720032 406.014160,352.272217 
            C406.202881,352.221588 406.474701,352.428955 406.863647,352.868011 
        z"/>
        <path fill="#CD3203" opacity="1.000000" stroke="none" 
            d="
        M405.278809,351.980591 
            C405.042572,351.956879 404.978149,351.488220 404.947693,351.253418 
            C405.194244,351.216156 405.471283,351.413727 405.866699,351.841248 
            C405.985107,352.071198 405.515045,352.004303 405.278809,351.980591 
        z"/>
        <path fill="#E76314" opacity="1.000000" stroke="none" 
            d="
        M395.028015,390.372742 
            C396.962036,392.460327 398.981445,394.876801 400.989197,397.662720 
            C399.022827,395.588623 397.068115,393.145111 395.028015,390.372742 
        z"/>
        <path fill="#F3F1E0" opacity="1.000000" stroke="none" 
            d="
        M395.473633,402.451111 
            C396.450165,403.100250 397.097290,403.918701 397.744415,404.737183 
            C396.927795,405.081055 396.111176,405.424927 395.294556,405.768799 
            C395.244446,404.719330 395.194336,403.669891 395.473633,402.451111 
        z"/>
        <path fill="#E76314" opacity="1.000000" stroke="none" 
            d="
        M402.971680,401.388977 
            C403.940186,402.478424 404.968994,403.897491 405.978516,405.689941 
            C404.983459,404.615082 404.007721,403.166809 402.971680,401.388977 
        z"/>
        <path fill="#E76314" opacity="1.000000" stroke="none" 
            d="
        M406.972046,408.354553 
            C407.641266,409.103699 408.330139,410.185150 409.001892,411.644165 
            C408.320404,410.910126 407.656036,409.798523 406.972046,408.354553 
        z"/>
        <path fill="#F1ECDC" opacity="1.000000" stroke="none" 
            d="
        M386.943054,407.727264 
            C386.237000,407.340118 385.543671,406.579987 384.787781,405.511475 
            C385.468781,405.920166 386.212250,406.637207 386.943054,407.727264 
        z"/>
        <path fill="#E76314" opacity="1.000000" stroke="none" 
            d="
        M405.938934,406.324097 
            C406.277130,406.489838 406.618835,406.961914 406.966125,407.741333 
            C406.628632,407.575928 406.285522,407.103210 405.938934,406.324097 
        z"/>
        <path fill="#E76314" opacity="1.000000" stroke="none" 
            d="
        M402.184204,400.247253 
            C402.500580,400.132660 402.711639,400.348572 402.896057,400.865173 
            C402.683746,400.893677 402.420227,400.697693 402.184204,400.247253 
        z"/>
        <path fill="#E76314" opacity="1.000000" stroke="none" 
            d="
        M401.020569,398.283691 
            C401.242004,398.227875 401.519165,398.441406 401.875366,398.911469 
            C401.661682,398.963043 401.368958,398.758057 401.020569,398.283691 
        z"/>
        <path fill="#F1ECDC" opacity="1.000000" stroke="none" 
            d="
        M384.781433,404.986084 
            C384.563599,405.037048 384.273590,404.819336 383.918579,404.326416 
            C384.138794,404.273254 384.424011,404.495331 384.781433,404.986084 
        z"/>
        <path fill="#E76314" opacity="1.000000" stroke="none" 
            d="
        M361.877747,338.773132 
            C360.705200,338.550476 359.431641,338.084900 358.108704,337.257507 
            C358.696869,337.013184 359.334381,337.130615 360.268707,337.385712 
            C360.969238,337.859009 361.372955,338.194641 361.877747,338.773132 
        z"/>
        <path fill="#E76314" opacity="1.000000" stroke="none" 
            d="
        M299.856201,310.678467 
            C295.754211,309.186493 291.446472,307.416138 287.087769,305.296326 
            C291.241364,306.764587 295.445923,308.582306 299.856201,310.678467 
        z"/>
        <path fill="#E76314" opacity="1.000000" stroke="none" 
            d="
        M286.902740,304.652924 
            C284.739441,303.849030 282.429199,302.739624 280.087006,301.276611 
            C282.288635,302.064453 284.522217,303.205933 286.902740,304.652924 
        z"/>
        <path fill="#E76314" opacity="1.000000" stroke="none" 
            d="
        M261.952393,288.633667 
            C260.074371,287.533875 258.068451,286.127350 256.023468,284.370605 
            C257.931091,285.455933 259.877777,286.891449 261.952393,288.633667 
        z"/>
        <path fill="#E76314" opacity="1.000000" stroke="none" 
            d="
        M265.930298,291.658264 
            C264.747681,291.179413 263.420197,290.411774 262.074005,289.278961 
            C263.298676,289.732361 264.542053,290.550903 265.930298,291.658264 
        z"/>
        <path fill="#E76314" opacity="1.000000" stroke="none" 
            d="
        M408.073303,390.620605 
            C406.364777,387.609650 404.656067,384.243500 402.942871,380.490082 
            C404.024414,381.995972 405.110382,383.889130 406.413147,386.036072 
            C407.110992,387.615051 407.592041,388.940216 408.073303,390.620605 
        z"/>
        <path fill="#E76314" opacity="1.000000" stroke="none" 
            d="
        M399.065430,373.657227 
            C398.387482,373.201508 397.691498,372.450928 397.001617,371.343079 
            C397.423676,371.319427 397.839630,371.653046 398.501740,372.103912 
            C398.847717,372.601562 398.947540,372.981934 399.065430,373.657227 
        z"/>
        <path fill="#E76314" opacity="1.000000" stroke="none" 
            d="
        M401.020477,376.646729 
            C400.385284,376.187073 399.699554,375.416443 399.035278,374.284454 
            C399.694458,374.727295 400.332214,375.531555 401.020477,376.646729 
        z"/>
        <path fill="#E76314" opacity="1.000000" stroke="none" 
            d="
        M402.124268,378.643341 
            C401.776215,378.487335 401.414948,378.022644 401.051636,377.245056 
            C401.403381,377.399689 401.757172,377.867157 402.124268,378.643341 
        z"/>
        <path fill="#E76314" opacity="1.000000" stroke="none" 
            d="
        M402.900696,379.766052 
            C402.670197,379.810211 402.428955,379.586517 402.129883,379.117615 
            C402.344696,379.080963 402.617310,379.289581 402.900696,379.766052 
        z"/>
        <path fill="#E76314" opacity="1.000000" stroke="none" 
            d="
        M377.276428,350.281433 
            C375.956787,349.580292 374.517883,348.610077 373.065765,347.278290 
            C373.397583,347.036011 373.742615,347.155273 374.343567,347.380676 
            C375.451996,348.328674 376.304565,349.170502 377.276428,350.281433 
        z"/>
        <path fill="#E76314" opacity="1.000000" stroke="none" 
            d="
        M378.941742,351.687134 
            C378.502075,351.707977 377.942413,351.458710 377.351807,350.880890 
            C377.821136,350.840576 378.321442,351.128784 378.941742,351.687134 
        z"/>
        <path fill="#E76314" opacity="1.000000" stroke="none" 
            d="
        M381.036743,353.686127 
            C380.823456,353.762512 380.530457,353.578857 380.139893,353.148132 
            C380.347260,353.076111 380.652161,353.251099 381.036743,353.686127 
        z"/>
        <path fill="#E76314" opacity="1.000000" stroke="none" 
            d="
        M380.029419,352.689117 
            C379.809357,352.774689 379.521332,352.593567 379.129944,352.173157 
            C379.338257,352.096741 379.649841,352.259552 380.029419,352.689117 
        z"/>
        <path fill="#E76314" opacity="1.000000" stroke="none" 
            d="
        M367.865967,342.699615 
            C366.039429,341.899658 364.066345,340.802338 362.039795,339.362915 
            C363.897339,340.147980 365.808380,341.275085 367.865967,342.699615 
        z"/>
        <path fill="#E76314" opacity="1.000000" stroke="none" 
            d="
        M396.076660,369.581787 
            C395.088257,368.855591 394.038513,367.811768 393.000916,366.374939 
            C394.013763,367.076019 395.014557,368.170074 396.076660,369.581787 
        z"/>
        <path fill="#E76314" opacity="1.000000" stroke="none" 
            d="
        M392.957031,365.734680 
            C392.749939,365.792114 392.479584,365.593292 392.126587,365.150665 
            C392.327209,365.097382 392.610474,365.287903 392.957031,365.734680 
        z"/>
        <path fill="#E76314" opacity="1.000000" stroke="none" 
            d="
        M396.968445,370.730011 
            C396.748657,370.784912 396.482727,370.573975 396.145569,370.112183 
            C396.357025,370.062286 396.639679,370.263245 396.968445,370.730011 
        z"/>
        <path fill="#E76314" opacity="1.000000" stroke="none" 
            d="
        M231.356552,256.393921 
            C229.937759,254.707504 228.461945,252.715851 227.006454,250.342590 
            C227.395615,250.320221 227.764420,250.679443 228.307770,251.238617 
            C229.021103,252.284134 229.559891,253.129700 230.319000,254.181854 
            C230.792725,254.955185 231.046127,255.521942 231.356552,256.393921 
        z"/>
        <path fill="#E76314" opacity="1.000000" stroke="none" 
            d="
        M359.088928,361.309631 
            C359.508087,361.214539 360.080505,361.385651 360.815369,361.819153 
            C360.399292,361.912994 359.820740,361.744415 359.088928,361.309631 
        z"/>
        <path fill="#E76314" opacity="1.000000" stroke="none" 
            d="
        M375.017944,371.307617 
            C375.917450,371.514221 376.899353,371.980957 377.914368,372.808044 
            C377.571198,373.058807 377.194916,372.949249 376.530701,372.776276 
            C375.861969,372.331146 375.481140,371.949432 375.017944,371.307617 
        z"/>
        <path fill="#E76314" opacity="1.000000" stroke="none" 
            d="
        M372.161926,369.247925 
            C372.577148,369.183411 373.126801,369.387787 373.817505,369.860413 
            C373.404449,369.924713 372.850403,369.720734 372.161926,369.247925 
        z"/>
        <path fill="#E76314" opacity="1.000000" stroke="none" 
            d="
        M373.962616,370.315491 
            C374.171722,370.234528 374.466003,370.410950 374.864685,370.828857 
            C374.661987,370.904541 374.354889,370.738708 373.962616,370.315491 
        z"/>
        <path fill="#E76314" opacity="1.000000" stroke="none" 
            d="
        M379.000793,374.267212 
            C379.198334,374.199097 379.486664,374.379944 379.875305,374.801300 
            C379.680939,374.866608 379.386261,374.691406 379.000793,374.267212 
        z"/>
</svg>